<svg width="20" height="21" viewBox="0 0 20 21" fill="none" xmlns="http://www.w3.org/2000/svg">
<path d="M7.94334 7.88539C10.0209 7.88539 11.705 6.18735 11.705 4.09272C11.705 1.99808 10.0209 0.300049 7.94334 0.300049C5.86581 0.300049 4.18164 1.99808 4.18164 4.09272C4.18164 6.18735 5.86581 7.88539 7.94334 7.88539Z" fill="#2E2E2E"/>
<path d="M9.05315 18.9599C8.84597 18.7533 8.71077 18.4846 8.66782 18.194C8.62487 17.9034 8.67648 17.6066 8.81491 17.348L9.1472 16.7159L8.46382 16.5073C8.18515 16.4194 7.94254 16.2422 7.77282 16.0026C7.60309 15.763 7.51552 15.4742 7.5234 15.1799V13.8841C7.52287 13.591 7.61584 13.3056 7.78858 13.07C7.96132 12.8344 8.20465 12.661 8.48263 12.5756L9.16601 12.367L8.83999 11.7349C8.70561 11.4799 8.65448 11.1886 8.69388 10.9026C8.73328 10.6166 8.8612 10.3504 9.05942 10.142C8.5771 10.0782 8.09134 10.0444 7.6049 10.0408C6.16813 10.0067 4.7416 10.2927 3.42706 10.8783C2.11251 11.464 0.942338 12.3349 0 13.4289V18.3278C0 18.4954 0.0660534 18.6562 0.183629 18.7748C0.301205 18.8933 0.460672 18.9599 0.62695 18.9599H9.05315Z" fill="#2E2E2E"/>
<path d="M19.8743 13.6755L18.6204 13.2963C18.5335 12.9841 18.4115 12.6829 18.2568 12.3987L18.8837 11.2229C18.9079 11.1793 18.9168 11.1287 18.9088 11.0793C18.9009 11.0299 18.8765 10.9848 18.8398 10.9511L17.9307 10.0282C17.8957 9.99388 17.8511 9.97121 17.8029 9.96329C17.7546 9.95538 17.7052 9.9626 17.6612 9.98399L16.5013 10.6161C16.2158 10.4597 15.9154 10.3327 15.6048 10.2368L15.2223 8.97261C15.2055 8.926 15.1748 8.88578 15.1343 8.85748C15.0939 8.82919 15.0458 8.8142 14.9966 8.81458H13.6926C13.6437 8.81596 13.5964 8.83247 13.5571 8.86187C13.5179 8.89127 13.4886 8.93214 13.4731 8.97893L13.097 10.2432C12.7803 10.3361 12.4752 10.4654 12.1879 10.6287L11.0531 9.99663C11.009 9.97299 10.9586 9.96393 10.9091 9.97074C10.8596 9.97755 10.8135 9.99987 10.7772 10.0346L9.85563 10.9448C9.81934 10.9801 9.79543 11.0263 9.78751 11.0765C9.7796 11.1266 9.7881 11.1781 9.81175 11.2229L10.4387 12.3734C10.2707 12.6589 10.1341 12.962 10.0312 13.2773L8.77728 13.6629C8.72985 13.6767 8.68822 13.7058 8.65878 13.7458C8.62934 13.7857 8.6137 13.8343 8.61427 13.8841V15.1799C8.6137 15.2297 8.62934 15.2783 8.65878 15.3183C8.68822 15.3582 8.72985 15.3874 8.77728 15.4012L10.0312 15.7868C10.1252 16.0964 10.2513 16.3951 10.4073 16.6781L9.7804 17.8791C9.75676 17.9239 9.74825 17.9754 9.75617 18.0255C9.76409 18.0757 9.788 18.1219 9.82429 18.1572L10.7584 19.0738C10.7947 19.1084 10.8408 19.1308 10.8903 19.1376C10.9398 19.1444 10.9902 19.1353 11.0343 19.1117L12.2067 18.4796C12.4857 18.6309 12.7799 18.7516 13.0844 18.8399L13.4606 20.1357C13.4764 20.1835 13.5067 20.2251 13.5472 20.2546C13.5877 20.2841 13.6363 20.3 13.6863 20.3001H14.9715C15.0204 20.2987 15.0677 20.2822 15.107 20.2528C15.1462 20.2234 15.1756 20.1825 15.191 20.1357L15.5671 18.8399C15.868 18.7527 16.1582 18.6319 16.4323 18.4796L17.6173 19.1117C17.6614 19.1353 17.7118 19.1444 17.7613 19.1376C17.8108 19.1308 17.8569 19.1084 17.8931 19.0738L18.8085 18.1572C18.8429 18.1207 18.865 18.0742 18.8718 18.0242C18.8785 17.9743 18.8695 17.9235 18.8461 17.8791L18.2191 16.6907C18.3691 16.4138 18.4889 16.1213 18.5765 15.8184L19.8304 15.4328C19.8775 15.4175 19.9189 15.3882 19.9491 15.3487C19.9794 15.3092 19.997 15.2614 19.9997 15.2116V13.9031C20.0012 13.8573 19.9903 13.8119 19.9683 13.7718C19.9462 13.7317 19.9137 13.6984 19.8743 13.6755ZM14.3383 16.6591C13.9239 16.6603 13.5184 16.5376 13.1732 16.3064C12.8281 16.0751 12.5587 15.7458 12.3992 15.3602C12.2398 14.9745 12.1974 14.5498 12.2775 14.1398C12.3576 13.7299 12.5565 13.3531 12.8491 13.0572C13.1417 12.7613 13.5149 12.5596 13.9212 12.4776C14.3276 12.3956 14.7489 12.4371 15.1319 12.5967C15.5149 12.7563 15.8423 13.0269 16.0727 13.3742C16.3031 13.7216 16.4261 14.13 16.4261 14.5478C16.4261 15.1067 16.2063 15.6427 15.815 16.0385C15.4236 16.4342 14.8926 16.6574 14.3383 16.6591Z" fill="#2E2E2E"/>
</svg>
