<svg width="24" height="24" viewBox="0 0 24 24" fill="none" xmlns="http://www.w3.org/2000/svg">
<path d="M11.9844 12.4624C7.21082 12.4714 3.26191 16.2507 3.02343 21.0269C3.01709 21.1624 3.03839 21.2978 3.08603 21.4249C3.13368 21.5519 3.20669 21.6679 3.3006 21.7659C3.39452 21.8638 3.50738 21.9416 3.63232 21.9945C3.75725 22.0474 3.89166 22.0744 4.02734 22.0737H19.9805C20.1155 22.0733 20.249 22.0456 20.3731 21.9922C20.4971 21.9388 20.609 21.8608 20.7021 21.763C20.7952 21.6652 20.8675 21.5495 20.9146 21.423C20.9618 21.2965 20.9829 21.1617 20.9766 21.0269C20.7378 16.2447 16.7796 12.4629 12 12.4624H11.9844Z" fill="#2E2E2E" fill-opacity="0.9"/>
<path d="M12.0003 1.92578C9.46992 1.92578 7.40697 3.99844 7.40695 6.53166C7.40694 9.06489 9.4699 11.1447 12.0003 11.1447C14.5308 11.1447 16.6009 9.06489 16.6008 6.53166C16.6008 3.99844 14.5307 1.92578 12.0003 1.92578Z" fill="#2E2E2E" fill-opacity="0.9"/>
</svg>
