<svg width="235" height="59" viewBox="0 0 235 59" fill="none" xmlns="http://www.w3.org/2000/svg">
<path d="M40.992 41.088C39.552 41.712 38.064 42 36.528 42C35.184 42 33.84 41.76 32.544 41.28C29.808 40.224 27.648 38.112 26.496 35.424L16.512 12.72L8.064 37.824H12.048C12.192 37.824 12.384 37.92 12.432 38.064C12.528 38.208 12.528 38.4 12.384 38.544L10.56 41.136C10.512 41.232 10.368 41.328 10.224 41.328H0.432C0.288 41.328 0.144 41.232 0.048 41.088C0 40.896 0 40.752 0.096 40.608L1.92 38.016C2.016 37.92 2.16 37.824 2.304 37.824H5.28L14.4 10.464L10.56 7.488C10.464 7.44 10.416 7.296 10.416 7.152C10.416 7.008 10.464 6.912 10.56 6.816L16.512 1.776C18.096 0.335999 20.784 0.335999 22.416 1.776C24.336 3.504 25.824 5.52 26.832 7.872L41.184 40.512C41.28 40.704 41.184 40.992 40.992 41.088ZM74.1495 16.944V41.232C74.1495 41.472 73.9095 41.712 73.6695 41.712C68.2455 41.712 63.8775 37.248 63.8775 31.728V28.32L55.0935 41.376C54.6615 42 53.4615 41.52 52.8375 41.376C52.3575 41.328 51.8775 41.184 51.3975 40.992C50.4855 40.704 49.6215 40.224 48.8055 39.648C47.2695 38.448 46.0695 36.816 45.3975 34.944C45.0135 33.888 44.8215 32.736 44.8215 31.584V21.552L41.7975 18.432C41.7015 18.336 41.6535 18.192 41.7015 18.048C41.7015 17.904 41.7495 17.76 41.8935 17.712L46.5015 14.016C47.4135 13.344 48.4695 13.008 49.4775 13.008C50.7735 13.008 52.0215 13.488 52.9335 14.448L54.9495 16.464C55.0455 16.56 55.0935 16.704 55.0935 16.8V33.984L63.5895 21.36L60.8535 18.576C60.7575 18.48 60.7095 18.336 60.7575 18.192C60.7575 18.048 60.8055 17.904 60.9015 17.856L65.5575 14.16C67.5255 12.672 70.2615 12.816 71.9895 14.592L74.0055 16.608C74.1015 16.704 74.1495 16.848 74.1495 16.944ZM106.626 40.656C106.578 40.752 106.53 40.848 106.434 40.896L106.146 41.088C105.138 41.712 102.306 41.952 101.394 42H100.578H100.338C97.986 42 95.778 41.088 94.242 39.456C93.858 39.072 93.474 38.64 93.09 38.208L88.338 31.44V41.424C88.338 41.664 88.146 41.856 87.858 41.856C82.866 41.856 78.786 37.776 78.786 32.784V21.312L76.002 18.48C75.906 18.384 75.858 18.24 75.858 18.096C75.858 18 75.954 17.856 76.05 17.808L80.37 14.448C82.146 13.056 84.69 13.248 86.322 14.832L88.194 16.656C88.29 16.752 88.338 16.896 88.338 16.992V27.072C88.674 27.312 89.058 27.552 89.538 27.696C89.97 27.888 90.45 28.032 91.026 28.08C91.362 28.128 92.466 28.224 93.618 27.744C96.45 26.544 97.842 22.656 97.026 20.304C96.738 19.488 95.538 16.944 94.242 16.128C94.146 16.08 93.858 15.84 93.762 15.6C93.714 15.408 93.714 15.216 93.858 15.024C94.386 14.304 97.17 14.256 97.17 14.256C98.994 14.304 100.434 15.168 101.106 15.696C101.73 16.224 103.842 18.048 103.842 20.976C103.89 22.464 103.362 23.568 103.17 24C101.586 27.12 98.178 28.32 96.546 28.704C97.314 29.616 99.762 32.544 106.53 40.416C106.578 40.464 106.626 40.56 106.626 40.656ZM130.998 35.376C131.142 30.816 128.598 25.68 127.974 24.48C126.102 20.736 122.598 15.888 120.006 16.608H119.91C119.814 16.656 119.67 16.704 119.478 16.8C119.43 16.848 119.334 16.896 119.286 16.944C118.854 17.232 118.278 17.904 118.038 19.152C117.27 22.944 119.766 29.616 122.166 33.456C124.086 36.576 127.014 39.552 128.934 39.36C129.03 39.36 129.174 39.36 129.27 39.312C129.558 39.264 129.798 39.072 130.038 38.832C130.902 37.872 130.95 35.952 130.998 35.376ZM132.87 16.896C133.542 17.376 138.678 21.024 138.822 27.12C138.966 31.776 136.134 35.328 135.462 36.192C135.366 36.336 135.126 36.624 134.79 37.008C133.782 38.112 131.91 39.936 129.174 41.04C129.03 41.136 128.838 41.184 128.646 41.232C127.83 41.568 126.918 41.808 125.91 41.904C125.91 41.904 125.094 42 124.23 42C118.038 42 113.958 37.824 113.958 37.824C113.334 37.152 109.734 33.504 109.974 28.368C110.214 24.144 113.046 20.784 113.91 19.728C114.054 19.536 114.198 19.392 114.198 19.344C114.966 18.48 116.79 16.656 119.43 15.504C119.574 15.456 119.718 15.408 119.862 15.36C120.294 15.168 120.726 15.024 121.206 14.88C121.206 14.88 122.646 14.496 124.23 14.496C129.174 14.352 132.87 16.896 132.87 16.896ZM162.431 37.968C164.015 36.336 164.399 33.84 164.399 31.824C164.399 30.864 164.303 30 164.255 29.376C163.919 25.776 162.527 23.328 161.663 21.888C160.799 20.304 159.311 17.664 156.671 16.752C155.951 16.464 155.135 16.224 154.463 16.56L154.415 16.608C154.367 16.608 154.271 16.656 154.271 16.704C153.551 17.184 153.311 18.096 153.215 18.768C153.167 19.392 153.167 19.824 153.215 19.968V35.28C153.983 36.912 155.087 38.064 156.383 38.784C156.815 39.024 157.727 39.504 158.831 39.552H159.023C159.215 39.552 159.407 39.504 159.647 39.504C161.087 39.264 162.047 38.352 162.431 37.968ZM172.751 24.624C172.991 25.584 173.087 26.496 173.039 27.408C173.039 28.08 172.991 28.608 172.895 29.088C172.847 29.328 172.847 29.568 172.751 29.808C172.079 33.168 170.159 35.424 169.535 36.144C168.239 37.68 166.703 38.928 164.975 39.792C164.879 39.888 164.735 39.984 164.543 40.032L164.447 40.08C164.303 40.176 164.111 40.272 163.967 40.368C163.823 40.416 163.679 40.464 163.487 40.56C162.575 40.896 161.711 41.088 160.799 41.232C160.751 41.232 160.655 41.232 160.607 41.232C160.127 41.328 159.599 41.376 159.071 41.376H158.783C156.959 41.376 155.135 40.992 153.359 40.176C153.311 40.176 153.263 40.176 153.215 40.128V58.704C153.215 58.848 153.119 58.992 152.975 58.992C152.399 58.992 151.871 58.944 151.343 58.848C146.639 58.08 143.183 54 143.183 49.2V22.896C143.183 22.608 143.135 22.32 142.991 22.032C142.895 21.648 142.655 21.312 142.367 21.024L140.015 18.624C139.967 18.576 139.967 18.48 139.967 18.384C139.967 18.336 140.015 18.24 140.063 18.192L144.815 14.544C145.007 14.4 145.247 14.256 145.487 14.112C147.359 13.152 149.615 13.44 151.103 14.928L151.775 15.6C152.255 15.264 152.735 14.976 153.311 14.736C153.455 14.688 153.599 14.592 153.791 14.544C153.839 14.544 153.887 14.544 153.935 14.496C154.463 14.256 155.039 14.112 155.615 13.968C160.415 12.72 165.887 14.304 169.199 18.048C169.919 18.816 172.031 21.168 172.751 24.624ZM205.915 16.944V41.232C205.915 41.472 205.675 41.712 205.435 41.712C200.011 41.712 195.643 37.248 195.643 31.728V28.32L186.859 41.376C186.427 42 185.227 41.52 184.603 41.376C184.123 41.328 183.643 41.184 183.163 40.992C182.251 40.704 181.387 40.224 180.571 39.648C179.035 38.448 177.835 36.816 177.163 34.944C176.779 33.888 176.587 32.736 176.587 31.584V21.552L173.563 18.432C173.467 18.336 173.419 18.192 173.467 18.048C173.467 17.904 173.515 17.76 173.659 17.712L178.267 14.016C179.179 13.344 180.235 13.008 181.243 13.008C182.539 13.008 183.787 13.488 184.699 14.448L186.715 16.464C186.811 16.56 186.859 16.704 186.859 16.8V33.984L195.355 21.36L192.619 18.576C192.523 18.48 192.475 18.336 192.523 18.192C192.523 18.048 192.571 17.904 192.667 17.856L197.323 14.16C199.291 12.672 202.027 12.816 203.755 14.592L205.771 16.608C205.867 16.704 205.915 16.848 205.915 16.944ZM232.872 37.824C232.488 38.304 231.912 38.976 231 39.6C230.088 40.272 228.888 40.944 227.352 41.376C225.48 41.952 223.608 42 221.928 41.808C217.416 41.28 214.056 38.736 214.008 38.688C213.24 38.064 211.848 36.96 210.648 34.944C208.296 30.912 209.064 26.592 209.496 24.912C210.552 21.12 213 18.672 214.392 17.568C215.496 16.656 219.576 13.776 225.096 14.4C225.144 14.4 225.192 14.4 225.24 14.4C228.84 14.832 233.112 17.04 234.072 20.784C234.072 20.88 234.072 20.976 234.024 21.024C233.976 21.072 233.928 21.12 233.832 21.12C233.112 21.264 232.344 21.456 231.576 21.6L230.376 21.792C230.328 21.84 229.992 21.888 229.56 21.984L227.544 22.368C227.448 22.368 227.352 22.368 227.304 22.272C227.208 22.224 227.208 22.128 227.208 22.032C227.352 21.072 227.16 20.016 226.584 19.056C226.056 18.24 225.288 17.472 224.28 16.896C223.08 16.128 221.832 15.936 220.776 16.272C219.576 16.608 218.904 17.52 218.616 17.856C217.608 19.248 217.512 20.88 217.56 22.32C217.56 22.752 217.992 32.832 223.512 38.352C224.232 39.072 225.096 39.792 226.152 39.696C227.256 39.6 228.408 38.64 228.504 37.68C228.552 36.864 227.784 35.904 227.448 35.568C227.256 35.328 227.064 35.136 226.92 34.992C226.632 34.752 226.392 34.56 226.44 34.224C226.536 33.456 228.072 33.12 228.984 33.024C229.704 32.928 233.304 32.592 234.024 34.368C234.552 35.616 233.448 37.056 232.872 37.824Z" fill="#2E2E2E"/>
</svg>
