<svg width="153" height="43" viewBox="0 0 153 43" fill="none" xmlns="http://www.w3.org/2000/svg">
<path d="M26.7749 29.6727C25.834 30.1311 24.8616 30.3426 23.858 30.3426C22.9797 30.3426 22.1015 30.1663 21.2547 29.8137C19.4669 29.038 18.0555 27.4864 17.3027 25.5118L10.7788 8.83304L5.25855 27.2749H7.86184C7.95594 27.2749 8.0814 27.3454 8.11276 27.4512C8.17549 27.557 8.17549 27.698 8.0814 27.8038L6.88953 29.7079C6.85816 29.7785 6.76407 29.849 6.66997 29.849H0.271522C0.177427 29.849 0.0833321 29.7785 0.0206022 29.6727C-0.0107627 29.5316 -0.0107628 29.4258 0.0519672 29.3201L1.24384 27.4159C1.30657 27.3454 1.40066 27.2749 1.49476 27.2749H3.43938L9.39872 7.17574L6.88953 4.98952C6.8268 4.95426 6.79543 4.84848 6.79543 4.74269C6.79543 4.63691 6.8268 4.56638 6.88953 4.49586L10.7788 0.793387C11.8138 -0.264462 13.5703 -0.264462 14.6367 0.793387C15.8913 2.06281 16.8636 3.5438 17.5222 5.27162L26.9004 29.2495C26.9631 29.3906 26.9004 29.6021 26.7749 29.6727ZM48.4412 11.9361V29.7785C48.4412 29.9548 48.2844 30.1311 48.1276 30.1311C44.5833 30.1311 41.7291 26.8517 41.7291 22.7967V20.2931L35.9893 29.8842C35.7071 30.3426 34.9229 29.99 34.5152 29.8842C34.2015 29.849 33.8879 29.7432 33.5742 29.6021C32.9783 29.3906 32.4137 29.038 31.8805 28.6148C30.8769 27.7333 30.0927 26.5344 29.6536 25.1592C29.4027 24.3834 29.2772 23.5371 29.2772 22.6909V15.3212L27.3013 13.0292C27.2385 12.9587 27.2072 12.8529 27.2385 12.7471C27.2385 12.6413 27.2699 12.5355 27.364 12.5003L30.375 9.78511C30.9709 9.29144 31.661 9.04461 32.3196 9.04461C33.1665 9.04461 33.982 9.39723 34.5779 10.1025L35.8952 11.5834C35.958 11.654 35.9893 11.7598 35.9893 11.8303V24.4539L41.5409 15.1801L39.7531 13.135C39.6904 13.0644 39.659 12.9587 39.6904 12.8529C39.6904 12.7471 39.7218 12.6413 39.7845 12.606L42.8269 9.89089C44.1129 8.79778 45.9007 8.90356 47.0298 10.2082L48.3471 11.6892C48.4099 11.7598 48.4412 11.8655 48.4412 11.9361ZM69.6626 29.3553C69.6312 29.4258 69.5998 29.4964 69.5371 29.5316L69.3489 29.6727C68.6903 30.1311 66.8397 30.3074 66.2438 30.3426H65.7106H65.5538C64.0169 30.3426 62.5741 29.6727 61.5704 28.4738C61.3195 28.1917 61.0686 27.8743 60.8176 27.557L57.7125 22.5851V29.9195C57.7125 30.0958 57.5871 30.2369 57.3989 30.2369C54.1369 30.2369 51.4709 27.2396 51.4709 23.5724V15.1449L49.6517 13.0644C49.589 12.9939 49.5576 12.8881 49.5576 12.7823C49.5576 12.7118 49.6204 12.606 49.6831 12.5708L52.5059 10.1025C53.6664 9.07987 55.3288 9.22092 56.3952 10.3846L57.6184 11.7245C57.6811 11.795 57.7125 11.9008 57.7125 11.9713V19.3763C57.9321 19.5526 58.183 19.7289 58.4966 19.8347C58.7789 19.9757 59.0926 20.0815 59.469 20.1168C59.6885 20.152 60.4099 20.2225 61.1627 19.8699C63.0132 18.9884 63.9228 16.1322 63.3896 14.4044C63.2014 13.8049 62.4173 11.9361 61.5704 11.3366C61.5077 11.3014 61.3195 11.125 61.2568 10.9487C61.2254 10.8077 61.2254 10.6666 61.3195 10.5256C61.6645 9.99668 63.4837 9.96141 63.4837 9.96141C64.6755 9.99667 65.6165 10.6314 66.0556 11.0193C66.4633 11.4071 67.8434 12.7471 67.8434 14.898C67.8748 15.9912 67.5297 16.8022 67.4043 17.1195C66.3692 19.4115 64.1423 20.2931 63.0759 20.5752C63.5778 21.2451 65.1774 23.3961 69.5998 29.179C69.6312 29.2143 69.6626 29.2848 69.6626 29.3553ZM85.5881 25.4765C85.6822 22.1267 84.0199 18.3537 83.6121 17.4721C82.3889 14.7217 80.0992 11.1603 78.4055 11.6892H78.3428C78.2801 11.7245 78.186 11.7598 78.0605 11.8303C78.0292 11.8655 77.9664 11.9008 77.9351 11.9361C77.6528 12.1476 77.2764 12.6413 77.1196 13.5581C76.6177 16.3438 78.2487 21.2451 79.817 24.0661C81.0716 26.3581 82.9848 28.5443 84.2394 28.4033C84.3022 28.4033 84.3963 28.4033 84.459 28.368C84.6472 28.3327 84.804 28.1917 84.9608 28.0154C85.5254 27.3101 85.5568 25.8997 85.5881 25.4765ZM86.8114 11.9008C87.2505 12.2534 90.6065 14.9333 90.7006 19.4115C90.7947 22.8319 88.9442 25.4413 88.5051 26.076C88.4423 26.1818 88.2855 26.3933 88.0659 26.6754C87.4073 27.4864 86.1841 28.8264 84.3963 29.6374C84.3022 29.7079 84.1767 29.7432 84.0512 29.7785C83.518 30.0253 82.9221 30.2016 82.2634 30.2721C82.2634 30.2721 81.7302 30.3426 81.1657 30.3426C77.1196 30.3426 74.4536 27.2749 74.4536 27.2749C74.0458 26.7812 71.6934 24.1013 71.8503 20.3283C72.0071 17.2253 73.8576 14.757 74.4222 13.9812C74.5163 13.8402 74.6104 13.7344 74.6104 13.6991C75.1122 13.0644 76.3041 11.7245 78.0292 10.8782C78.1233 10.843 78.2174 10.8077 78.3114 10.7724C78.5937 10.6314 78.876 10.5256 79.1897 10.4198C79.1897 10.4198 80.1306 10.1377 81.1657 10.1377C84.3963 10.0319 86.8114 11.9008 86.8114 11.9008ZM106.128 27.3807C107.163 26.1818 107.414 24.3482 107.414 22.8672C107.414 22.1619 107.351 21.5272 107.319 21.0688C107.1 18.4242 106.19 16.6259 105.626 15.568C105.061 14.4044 104.089 12.465 102.364 11.795C101.893 11.5834 101.36 11.4071 100.921 11.654L100.89 11.6892C100.858 11.6892 100.796 11.7245 100.796 11.7598C100.325 12.1124 100.168 12.7823 100.106 13.276C100.074 13.7344 100.074 14.0518 100.106 14.1575V25.406C100.607 26.6049 101.329 27.4512 102.176 27.9801C102.458 28.1564 103.054 28.509 103.775 28.5443H103.901C104.026 28.5443 104.152 28.509 104.308 28.509C105.249 28.3327 105.877 27.6628 106.128 27.3807ZM112.871 17.5779C113.028 18.2832 113.091 18.9531 113.059 19.6231C113.059 20.1168 113.028 20.5046 112.965 20.8573C112.934 21.0336 112.934 21.2099 112.871 21.3862C112.432 23.8545 111.177 25.5118 110.77 26.0407C109.923 27.1691 108.919 28.0859 107.79 28.7206C107.727 28.7911 107.633 28.8617 107.508 28.8969L107.445 28.9322C107.351 29.0027 107.225 29.0732 107.131 29.1437C107.037 29.179 106.943 29.2143 106.818 29.2848C106.222 29.5316 105.657 29.6727 105.061 29.7785C105.03 29.7785 104.967 29.7785 104.936 29.7785C104.622 29.849 104.277 29.8842 103.932 29.8842H103.744C102.552 29.8842 101.36 29.6021 100.2 29.0027C100.168 29.0027 100.137 29.0027 100.106 28.9674V42.6137C100.106 42.7195 100.043 42.8253 99.9487 42.8253C99.5723 42.8253 99.2273 42.79 98.8823 42.7195C95.8085 42.1553 93.5502 39.1581 93.5502 35.6319V16.3085C93.5502 16.0969 93.5189 15.8854 93.4248 15.6738C93.3621 15.3917 93.2052 15.1449 93.017 14.9333L91.4802 13.1702C91.4488 13.135 91.4488 13.0644 91.4488 12.9939C91.4488 12.9587 91.4802 12.8881 91.5115 12.8529L94.6167 10.173C94.7421 10.0672 94.8989 9.96141 95.0558 9.85563C96.279 9.1504 97.7531 9.36197 98.7255 10.4551L99.1646 10.9487C99.4782 10.7019 99.7919 10.4903 100.168 10.314C100.262 10.2788 100.356 10.2082 100.482 10.173C100.513 10.173 100.545 10.173 100.576 10.1377C100.921 9.96141 101.297 9.85563 101.674 9.74984C104.81 8.83304 108.386 9.99668 110.55 12.7471C111.021 13.3113 112.401 15.0391 112.871 17.5779ZM134.542 11.9361V29.7785C134.542 29.9548 134.385 30.1311 134.228 30.1311C130.684 30.1311 127.83 26.8517 127.83 22.7967V20.2931L122.09 29.8842C121.807 30.3426 121.023 29.99 120.616 29.8842C120.302 29.849 119.988 29.7432 119.675 29.6021C119.079 29.3906 118.514 29.038 117.981 28.6148C116.977 27.7333 116.193 26.5344 115.754 25.1592C115.503 24.3834 115.378 23.5371 115.378 22.6909V15.3212L113.402 13.0292C113.339 12.9587 113.308 12.8529 113.339 12.7471C113.339 12.6413 113.37 12.5355 113.464 12.5003L116.475 9.78511C117.071 9.29144 117.761 9.04461 118.42 9.04461C119.267 9.04461 120.082 9.39723 120.678 10.1025L121.996 11.5834C122.058 11.654 122.09 11.7598 122.09 11.8303V24.4539L127.641 15.1801L125.854 13.135C125.791 13.0644 125.759 12.9587 125.791 12.8529C125.791 12.7471 125.822 12.6413 125.885 12.606L128.927 9.89089C130.213 8.79778 132.001 8.90356 133.13 10.2082L134.448 11.6892C134.51 11.7598 134.542 11.8655 134.542 11.9361ZM152.156 27.2749C151.905 27.6275 151.529 28.1212 150.933 28.5796C150.337 29.0732 149.553 29.5669 148.549 29.8842C147.326 30.3074 146.103 30.3426 145.005 30.2016C142.057 29.8137 139.861 27.9448 139.83 27.9096C139.328 27.4512 138.418 26.6402 137.634 25.1592C136.097 22.1972 136.599 19.0237 136.882 17.7895C137.572 15.0038 139.171 13.2055 140.081 12.3945C140.802 11.7245 143.468 9.6088 147.075 10.0672C147.107 10.0672 147.138 10.0672 147.169 10.0672C149.522 10.3846 152.313 12.0066 152.94 14.757C152.94 14.8275 152.94 14.898 152.909 14.9333C152.878 14.9686 152.846 15.0038 152.784 15.0038C152.313 15.1096 151.811 15.2507 151.309 15.3564L150.525 15.4975C150.494 15.5328 150.274 15.568 149.992 15.6385L148.675 15.9206C148.612 15.9206 148.549 15.9206 148.518 15.8501C148.455 15.8148 148.455 15.7443 148.455 15.6738C148.549 14.9686 148.424 14.1928 148.048 13.4876C147.702 12.8881 147.201 12.3239 146.542 11.9008C145.758 11.3366 144.942 11.1956 144.252 11.4424C143.468 11.6892 143.029 12.3592 142.841 12.606C142.182 13.6286 142.12 14.8275 142.151 15.8854C142.151 16.2027 142.433 23.6077 146.04 27.6628C146.511 28.1917 147.075 28.7206 147.765 28.6501C148.487 28.5796 149.239 27.8743 149.302 27.1691C149.333 26.5696 148.832 25.8644 148.612 25.6176C148.487 25.4413 148.361 25.3002 148.267 25.1944C148.079 25.0181 147.922 24.8771 147.953 24.6303C148.016 24.0661 149.02 23.8192 149.616 23.7487C150.086 23.6782 152.439 23.4314 152.909 24.736C153.254 25.6528 152.533 26.7107 152.156 27.2749Z" fill="#F4AEC9"/>
</svg>
