<svg width="39" height="34" viewBox="0 0 39 34" fill="none" xmlns="http://www.w3.org/2000/svg">
<path d="M38.0631 8.01455C37.2823 7.08979 36.2087 6.47329 35.0375 6.47329H20.0075C19.5195 6.47329 19.0315 6.88429 19.0315 7.50079C19.0315 8.1173 19.5195 8.5283 20.0075 8.5283H35.0375C35.6231 8.5283 36.2087 8.83655 36.5991 9.24756C36.9895 9.76131 37.1847 10.3778 36.9895 10.9943L36.1111 16.1318H25.3754C24.8874 16.1318 24.3994 16.5428 24.3994 17.1594C24.3994 17.7759 24.8874 18.1869 25.3754 18.1869H35.8183L34.9399 23.1189C34.8423 23.8381 34.1592 24.3519 33.476 24.3519H14.7372C14.0541 24.3519 13.4685 23.8381 13.2733 23.1189L9.46697 0.822005C9.36937 0.308252 8.97898 0 8.49099 0H0.975976C0.487988 0 0 0.411002 0 1.02751C0 1.64401 0.487988 2.05501 0.975976 2.05501H7.71021L11.4189 23.6326C11.6141 25.0711 12.5901 26.0987 13.8589 26.5097C13.3709 27.2289 12.9805 28.1537 12.9805 29.1812C12.9805 31.7499 14.9324 33.805 17.3724 33.805C19.8123 33.805 21.7643 31.7499 21.7643 29.1812C21.7643 28.2564 21.4715 27.3317 20.9835 26.6124H26.9369C26.4489 27.3317 26.1562 28.2564 26.1562 29.1812C26.1562 31.7499 28.1081 33.805 30.548 33.805C32.988 33.805 34.9399 31.7499 34.9399 29.1812C34.9399 28.1537 34.6471 27.2289 34.1592 26.5097C35.4279 26.2014 36.5015 25.0711 36.7943 23.6326L38.9414 11.5081C39.1366 10.2751 38.8438 9.04205 38.0631 8.01455ZM19.8123 29.0784C19.8123 30.5169 18.7387 31.6472 17.3724 31.6472C16.006 31.6472 14.9324 30.5169 14.9324 29.0784C14.9324 27.6399 16.006 26.5097 17.3724 26.5097C18.7387 26.5097 19.8123 27.6399 19.8123 29.0784ZM30.6456 31.6472C29.2793 31.6472 28.2057 30.5169 28.2057 29.0784C28.2057 27.6399 29.2793 26.5097 30.6456 26.5097C32.012 26.5097 33.0856 27.6399 33.0856 29.0784C33.0856 30.5169 32.012 31.6472 30.6456 31.6472Z" fill="#2E2E2E"/>
</svg>
