<svg width="125" height="25" viewBox="0 0 125 25" fill="none" xmlns="http://www.w3.org/2000/svg">
<path opacity="0.5" d="M12.0245 3.08156C12.1741 2.6209 12.8259 2.6209 12.9755 3.08156L14.6064 8.10081C14.8072 8.71885 15.3831 9.13729 16.033 9.13729H21.3105C21.7949 9.13729 21.9963 9.75709 21.6044 10.0418L17.3348 13.1439C16.8091 13.5258 16.5891 14.2029 16.7899 14.8209L18.4207 19.8402C18.5704 20.3008 18.0432 20.6839 17.6513 20.3992L13.3817 17.2971C12.8559 16.9152 12.1441 16.9152 11.6183 17.2971L7.34869 20.3992C6.95683 20.6839 6.42959 20.3008 6.57927 19.8402L8.21012 14.8209C8.41093 14.2029 8.19095 13.5258 7.66522 13.1439L3.39558 10.0418C3.00373 9.7571 3.20511 9.13729 3.68948 9.13729H8.96703C9.61687 9.13729 10.1928 8.71885 10.3936 8.10081L12.0245 3.08156Z" fill="#F6D0DD" stroke="#2E2E2E"/>
<path opacity="0.5" d="M37.0245 3.08156C37.1741 2.6209 37.8259 2.6209 37.9755 3.08156L39.6064 8.10081C39.8072 8.71885 40.3831 9.13729 41.033 9.13729H46.3105C46.7949 9.13729 46.9963 9.75709 46.6044 10.0418L42.3348 13.1439C41.8091 13.5258 41.5891 14.2029 41.7899 14.8209L43.4207 19.8402C43.5704 20.3008 43.0432 20.6839 42.6513 20.3992L38.3817 17.2971C37.8559 16.9152 37.1441 16.9152 36.6183 17.2971L32.3487 20.3992C31.9568 20.6839 31.4296 20.3008 31.5793 19.8402L33.2101 14.8209C33.4109 14.2029 33.1909 13.5258 32.6652 13.1439L28.3956 10.0418C28.0037 9.7571 28.2051 9.13729 28.6895 9.13729H33.967C34.6169 9.13729 35.1928 8.71885 35.3936 8.10081L37.0245 3.08156Z" fill="#F6D0DD" stroke="#2E2E2E"/>
<path opacity="0.5" d="M87.0245 3.08156C87.1741 2.6209 87.8259 2.6209 87.9755 3.08156L89.6064 8.10081C89.8072 8.71885 90.3831 9.13729 91.033 9.13729H96.3105C96.7949 9.13729 96.9963 9.75709 96.6044 10.0418L92.3348 13.1439C91.8091 13.5258 91.5891 14.2029 91.7899 14.8209L93.4207 19.8402C93.5704 20.3008 93.0432 20.6839 92.6513 20.3992L88.3817 17.2971C87.8559 16.9152 87.1441 16.9152 86.6183 17.2971L82.3487 20.3992C81.9568 20.6839 81.4296 20.3008 81.5793 19.8402L83.2101 14.8209C83.4109 14.2029 83.1909 13.5258 82.6652 13.1439L78.3956 10.0418C78.0037 9.7571 78.2051 9.13729 78.6895 9.13729H83.967C84.6169 9.13729 85.1928 8.71885 85.3936 8.10081L87.0245 3.08156Z" fill="#F6D0DD" stroke="#2E2E2E"/>
<path opacity="0.5" d="M62.0245 3.08156C62.1741 2.6209 62.8259 2.6209 62.9755 3.08156L64.6064 8.10081C64.8072 8.71885 65.3831 9.13729 66.033 9.13729H71.3105C71.7949 9.13729 71.9963 9.75709 71.6044 10.0418L67.3348 13.1439C66.8091 13.5258 66.5891 14.2029 66.7899 14.8209L68.4207 19.8402C68.5704 20.3008 68.0432 20.6839 67.6513 20.3992L63.3817 17.2971C62.8559 16.9152 62.1441 16.9152 61.6183 17.2971L57.3487 20.3992C56.9568 20.6839 56.4296 20.3008 56.5793 19.8402L58.2101 14.8209C58.4109 14.2029 58.1909 13.5258 57.6652 13.1439L53.3956 10.0418C53.0037 9.7571 53.2051 9.13729 53.6895 9.13729H58.967C59.6169 9.13729 60.1928 8.71885 60.3936 8.10081L62.0245 3.08156Z" fill="#F6D0DD" stroke="#2E2E2E"/>
<path opacity="0.5" d="M112.024 3.08156C112.174 2.6209 112.826 2.6209 112.976 3.08156L114.606 8.10081C114.807 8.71885 115.383 9.13729 116.033 9.13729H121.311C121.795 9.13729 121.996 9.75709 121.604 10.0418L117.335 13.1439C116.809 13.5258 116.589 14.2029 116.79 14.8209L118.421 19.8402C118.57 20.3008 118.043 20.6839 117.651 20.3992L113.382 17.2971C112.856 16.9152 112.144 16.9152 111.618 17.2971L107.349 20.3992C106.957 20.6839 106.43 20.3008 106.579 19.8402L108.21 14.8209C108.411 14.2029 108.191 13.5258 107.665 13.1439L103.396 10.0418C103.004 9.7571 103.205 9.13729 103.689 9.13729H108.967C109.617 9.13729 110.193 8.71885 110.394 8.10081L112.024 3.08156Z" fill="#F6D0DD" stroke="#2E2E2E"/>
</svg>
