<svg width="58" height="58" viewBox="0 0 58 58" fill="none" xmlns="http://www.w3.org/2000/svg">
<g filter="url(#filter0_f_145_103)">
<circle cx="29" cy="29" r="25" fill="#F6D0DD"/>
</g>
<g clip-path="url(#clip0_145_103)">
<path d="M39.5646 16.6615L12.986 26.9638C11.9164 27.4435 11.5547 28.4044 12.7274 28.9258L19.546 31.1039L36.0324 20.8623C36.9326 20.2193 37.8541 20.3908 37.0612 21.098L22.9016 33.9848L22.4567 39.4385C22.8687 40.2806 23.6231 40.2845 24.1042 39.866L28.0217 36.1401L34.731 41.1901C36.2893 42.1174 37.1372 41.5189 37.4724 39.8193L41.8731 18.8739C42.3301 16.7817 41.5508 15.8599 39.5646 16.6615Z" fill="white"/>
</g>
<defs>
<filter id="filter0_f_145_103" x="0" y="0" width="58" height="58" filterUnits="userSpaceOnUse" color-interpolation-filters="sRGB">
<feFlood flood-opacity="0" result="BackgroundImageFix"/>
<feBlend mode="normal" in="SourceGraphic" in2="BackgroundImageFix" result="shape"/>
<feGaussianBlur stdDeviation="2" result="effect1_foregroundBlur_145_103"/>
</filter>
<clipPath id="clip0_145_103">
<rect width="30" height="30" fill="white" transform="translate(12 14)"/>
</clipPath>
</defs>
</svg>
