<svg width="58" height="58" viewBox="0 0 58 58" fill="none" xmlns="http://www.w3.org/2000/svg">
<g filter="url(#filter0_f_145_98)">
<circle cx="29" cy="29" r="25" fill="#F6D0DD"/>
</g>
<g clip-path="url(#clip0_145_98)">
<path d="M43.841 35.8998C43.8046 35.8215 43.7708 35.7566 43.7393 35.7046C43.2188 34.7671 42.2242 33.6165 40.7559 32.2523L40.7249 32.2211L40.7094 32.2058L40.6937 32.1901H40.6779C40.0116 31.5548 39.5896 31.1277 39.4129 30.9091C39.0896 30.4925 39.0171 30.0709 39.1938 29.6436C39.3187 29.3209 39.7876 28.6392 40.5996 27.5977C41.0267 27.0457 41.365 26.6034 41.6148 26.2701C43.4164 23.8749 44.1975 22.3444 43.9579 21.6779L43.8648 21.5221C43.8023 21.4284 43.6409 21.3426 43.3809 21.2643C43.1202 21.1863 42.7871 21.1734 42.3809 21.2254L37.8825 21.2565C37.8096 21.2306 37.7056 21.233 37.57 21.2643C37.4346 21.2956 37.3669 21.3113 37.3669 21.3113L37.2886 21.3504L37.2265 21.3974C37.1744 21.4285 37.1171 21.4832 37.0546 21.5613C36.9924 21.6391 36.9403 21.7305 36.8987 21.8346C36.409 23.0946 35.8522 24.2661 35.2272 25.349C34.8419 25.9947 34.4881 26.5543 34.1649 27.0282C33.8422 27.5018 33.5714 27.8508 33.3529 28.0745C33.1341 28.2985 32.9366 28.4779 32.7592 28.6134C32.5821 28.7489 32.4469 28.8062 32.3533 28.7853C32.2595 28.7643 32.1711 28.7435 32.0875 28.7227C31.9418 28.629 31.8246 28.5014 31.7363 28.34C31.6475 28.1786 31.5878 27.9755 31.5565 27.7308C31.5255 27.4859 31.5071 27.2753 31.5018 27.0982C31.497 26.9213 31.4992 26.6711 31.5098 26.3484C31.5206 26.0254 31.5255 25.8069 31.5255 25.6924C31.5255 25.2966 31.5332 24.8671 31.5487 24.4037C31.5644 23.9403 31.5772 23.5732 31.5878 23.3027C31.5984 23.0319 31.6034 22.7455 31.6034 22.4435C31.6034 22.1415 31.585 21.9046 31.5487 21.7328C31.5128 21.5611 31.4577 21.3944 31.3851 21.2329C31.312 21.0715 31.2051 20.9466 31.0649 20.858C30.9243 20.7695 30.7496 20.6992 30.5416 20.6471C29.9897 20.5222 29.2868 20.4546 28.4328 20.4441C26.496 20.4233 25.2516 20.5484 24.6997 20.8191C24.481 20.9335 24.2831 21.0898 24.1062 21.2875C23.9187 21.5167 23.8926 21.6418 24.0279 21.6623C24.6528 21.7559 25.0952 21.9799 25.3555 22.3339L25.4493 22.5215C25.5223 22.6568 25.5952 22.8965 25.6681 23.24C25.7409 23.5836 25.7879 23.9637 25.8086 24.38C25.8606 25.1403 25.8606 25.7911 25.8086 26.3325C25.7565 26.8741 25.7072 27.2958 25.6602 27.5978C25.6133 27.8997 25.543 28.1445 25.4493 28.3318C25.3555 28.5193 25.2931 28.6338 25.2618 28.6754C25.2306 28.717 25.2045 28.7432 25.1838 28.7535C25.0485 28.8053 24.9077 28.8318 24.762 28.8318C24.6161 28.8318 24.4392 28.7588 24.231 28.6129C24.0228 28.4671 23.8068 28.2667 23.5828 28.0116C23.3589 27.7564 23.1064 27.3997 22.8251 26.9416C22.5441 26.4834 22.2525 25.942 21.9505 25.3172L21.7006 24.8641C21.5445 24.5726 21.3311 24.1482 21.0603 23.5912C20.7894 23.034 20.55 22.495 20.3418 21.9743C20.2586 21.7557 20.1336 21.5892 19.967 21.4746L19.8888 21.4276C19.8368 21.3861 19.7534 21.3419 19.6389 21.2949C19.5243 21.2479 19.4047 21.2142 19.2797 21.1934L14.9999 21.2245C14.5625 21.2245 14.2658 21.3236 14.1095 21.5215L14.047 21.6151C14.0158 21.6672 14 21.7505 14 21.8651C14 21.9797 14.0312 22.1203 14.0938 22.2867C14.7185 23.7551 15.398 25.1713 16.1321 26.5354C16.8661 27.8995 17.504 28.9983 18.0454 29.8309C18.5868 30.664 19.1387 31.4503 19.7011 32.1895C20.2634 32.9289 20.6357 33.4027 20.8178 33.6109C21.0002 33.8194 21.1434 33.9753 21.2475 34.0794L21.6381 34.4542C21.888 34.7042 22.255 35.0036 22.7392 35.3523C23.2235 35.7013 23.7597 36.0449 24.3481 36.3836C24.9365 36.7218 25.6211 36.9977 26.4022 37.2111C27.1831 37.4248 27.9432 37.5105 28.6826 37.4691H30.4789C30.8432 37.4377 31.1193 37.3231 31.3069 37.1254L31.369 37.0471C31.4108 36.985 31.4499 36.8884 31.486 36.7585C31.5226 36.6283 31.5407 36.4849 31.5407 36.3289C31.5301 35.8813 31.5641 35.4778 31.6421 35.1186C31.7199 34.7595 31.8086 34.4887 31.9079 34.3064C32.0071 34.1242 32.119 33.9705 32.2436 33.8458C32.3684 33.7209 32.4574 33.6453 32.5096 33.6192C32.5614 33.593 32.6028 33.5752 32.6341 33.5646C32.884 33.4813 33.1781 33.5619 33.5169 33.8069C33.8554 34.0516 34.1728 34.3537 34.4698 34.7128C34.7666 35.0723 35.1232 35.4755 35.5396 35.9232C35.9563 36.3711 36.3207 36.704 36.633 36.923L36.9452 37.1104C37.1538 37.2355 37.4246 37.35 37.7578 37.4541C38.0905 37.5582 38.382 37.5842 38.6323 37.5322L42.6308 37.4698C43.0263 37.4698 43.334 37.4044 43.5523 37.2744C43.771 37.1443 43.901 37.0009 43.9429 36.8449C43.9847 36.6888 43.9869 36.5116 43.9508 36.3136C43.9138 36.116 43.8773 35.9779 43.841 35.8998Z" fill="white"/>
</g>
<defs>
<filter id="filter0_f_145_98" x="0" y="0" width="58" height="58" filterUnits="userSpaceOnUse" color-interpolation-filters="sRGB">
<feFlood flood-opacity="0" result="BackgroundImageFix"/>
<feBlend mode="normal" in="SourceGraphic" in2="BackgroundImageFix" result="shape"/>
<feGaussianBlur stdDeviation="2" result="effect1_foregroundBlur_145_98"/>
</filter>
<clipPath id="clip0_145_98">
<rect width="30" height="30" fill="white" transform="translate(14 14)"/>
</clipPath>
</defs>
</svg>
